<?xml version="1.0" encoding="UTF-8" standalone="no"?><svg xmlns="http://www.w3.org/2000/svg" xmlns:xlink="http://www.w3.org/1999/xlink" contentScriptType="application/ecmascript" contentStyleType="text/css" height="954px" preserveAspectRatio="none" style="width:687px;height:954px;background:#FFFFFF;" version="1.1" viewBox="0 0 687 954" width="687px" zoomAndPan="magnify"><defs><filter height="300%" id="frasm0t95253s" width="300%" x="-1" y="-1"><feGaussianBlur result="blurOut" stdDeviation="2.0"/><feColorMatrix in="blurOut" result="blurOut2" type="matrix" values="0 0 0 0 0 0 0 0 0 0 0 0 0 0 0 0 0 0 .4 0"/><feOffset dx="4.0" dy="4.0" in="blurOut2" result="blurOut3"/><feBlend in="SourceGraphic" in2="blurOut3" mode="normal"/></filter></defs><g><!--MD5=[b34797a66dc35cbf1d65f7e3ca75530e]
class Task--><rect codeLine="3" fill="#FEFECE" filter="url(#frasm0t95253s)" height="445.5703" id="Task" style="stroke:#A80036;stroke-width:1.5;" width="298" x="7" y="7"/><ellipse cx="138.25" cy="23" fill="#ADD1B2" rx="11" ry="11" style="stroke:#A80036;stroke-width:1.0;"/><path d="M141.0156,18.875 Q141.1719,18.6563 141.3594,18.5469 Q141.5469,18.4375 141.7656,18.4375 Q142.1406,18.4375 142.375,18.6953 Q142.6094,18.9531 142.6094,19.5625 L142.6094,21.0156 Q142.6094,21.625 142.375,21.8906 Q142.1406,22.1563 141.7656,22.1563 Q141.4219,22.1563 141.2188,21.9531 Q141.0156,21.7656 140.9063,21.25 Q140.8594,20.8906 140.6719,20.7031 Q140.3438,20.3281 139.7344,20.1094 Q139.125,19.8906 138.5,19.8906 Q137.7344,19.8906 137.1016,20.2188 Q136.4688,20.5469 135.9766,21.2969 Q135.4844,22.0469 135.4844,23.0781 L135.4844,24.1719 Q135.4844,25.4063 136.375,26.2266 Q137.2656,27.0469 138.8594,27.0469 Q139.7969,27.0469 140.4531,26.7969 Q140.8438,26.6406 141.2656,26.2031 Q141.5313,25.9375 141.6797,25.8594 Q141.8281,25.7813 142.0313,25.7813 Q142.3594,25.7813 142.6172,26.0391 Q142.875,26.2969 142.875,26.6406 Q142.875,26.9844 142.5313,27.3906 Q142.0313,27.9688 141.2344,28.2969 Q140.1563,28.75 138.8594,28.75 Q137.3438,28.75 136.1406,28.125 Q135.1563,27.625 134.4688,26.5547 Q133.7813,25.4844 133.7813,24.2031 L133.7813,23.0469 Q133.7813,21.7188 134.3984,20.5703 Q135.0156,19.4219 136.1094,18.8047 Q137.2031,18.1875 138.4375,18.1875 Q139.1719,18.1875 139.8203,18.3516 Q140.4688,18.5156 141.0156,18.875 Z " fill="#000000"/><text fill="#000000" font-family="sans-serif" font-size="12" lengthAdjust="spacing" textLength="27" x="158.75" y="27.9102">Task</text><line style="stroke:#A80036;stroke-width:1.5;" x1="8" x2="304" y1="39" y2="39"/><text fill="#000000" font-family="sans-serif" font-size="11" lengthAdjust="spacing" textLength="44" x="13" y="54.4189">-size_t id</text><text fill="#000000" font-family="sans-serif" font-size="11" lengthAdjust="spacing" textLength="60" x="13" y="68.2549">-string name</text><text fill="#000000" font-family="sans-serif" font-size="11" lengthAdjust="spacing" textLength="87" x="13" y="82.0908">-string description</text><text fill="#000000" font-family="sans-serif" font-size="11" lengthAdjust="spacing" textLength="96" x="13" y="95.9268">-DateTime due_date</text><text fill="#000000" font-family="sans-serif" font-size="11" lengthAdjust="spacing" textLength="89" x="13" y="109.7627">-const Label* label</text><text fill="#000000" font-family="sans-serif" font-size="11" lengthAdjust="spacing" textLength="72" x="13" y="123.5986">-uint8_t weight</text><line style="stroke:#A80036;stroke-width:1.5;" x1="8" x2="304" y1="130.0156" y2="130.0156"/><text fill="#000000" font-family="sans-serif" font-size="11" lengthAdjust="spacing" textLength="37" x="13" y="163.2705">+Task()</text><text fill="#000000" font-family="sans-serif" font-size="11" lengthAdjust="spacing" textLength="286" x="13" y="177.1064">+Task(size_t, string, string, DateTime, const Label*, uint8_t)</text><line style="stroke:#A80036;stroke-width:1.0;stroke-dasharray:1.0,2.0;" x1="8" x2="125" y1="144.9336" y2="144.9336"/><text fill="#000000" font-family="sans-serif" font-size="11" lengthAdjust="spacing" textLength="62" x="125" y="148.9346">constructors</text><line style="stroke:#A80036;stroke-width:1.0;stroke-dasharray:1.0,2.0;" x1="187" x2="304" y1="144.9336" y2="144.9336"/><text fill="#000000" font-family="sans-serif" font-size="11" lengthAdjust="spacing" textLength="99" x="13" y="208.7783">+size_t getId() const</text><text fill="#000000" font-family="sans-serif" font-size="11" lengthAdjust="spacing" textLength="116" x="13" y="222.6143">+string getName() const</text><text fill="#000000" font-family="sans-serif" font-size="11" lengthAdjust="spacing" textLength="143" x="13" y="236.4502">+string getDescription() const</text><text fill="#000000" font-family="sans-serif" font-size="11" lengthAdjust="spacing" textLength="147" x="13" y="250.2861">+DateTime getDueDate() const</text><text fill="#000000" font-family="sans-serif" font-size="11" lengthAdjust="spacing" textLength="114" x="13" y="264.1221">+Label getLabel() const</text><text fill="#000000" font-family="sans-serif" font-size="11" lengthAdjust="spacing" textLength="127" x="13" y="277.958">+uint8_t getWeight() const</text><line style="stroke:#A80036;stroke-width:1.0;stroke-dasharray:1.0,2.0;" x1="8" x2="139" y1="190.4414" y2="190.4414"/><text fill="#000000" font-family="sans-serif" font-size="11" lengthAdjust="spacing" textLength="34" x="139" y="194.4424">getters</text><line style="stroke:#A80036;stroke-width:1.0;stroke-dasharray:1.0,2.0;" x1="173" x2="304" y1="190.4414" y2="190.4414"/><text fill="#000000" font-family="sans-serif" font-size="11" lengthAdjust="spacing" textLength="89" x="13" y="309.6299">+void setId(size_t)</text><text fill="#000000" font-family="sans-serif" font-size="11" lengthAdjust="spacing" textLength="143" x="13" y="323.4658">+void setName(const string&amp;)</text><text fill="#000000" font-family="sans-serif" font-size="11" lengthAdjust="spacing" textLength="170" x="13" y="337.3018">+void setDescription(const string&amp;)</text><text fill="#000000" font-family="sans-serif" font-size="11" lengthAdjust="spacing" textLength="174" x="13" y="351.1377">+void setDueDate(const DateTime&amp;)</text><text fill="#000000" font-family="sans-serif" font-size="11" lengthAdjust="spacing" textLength="138" x="13" y="364.9736">+void setLabel(const Label*)</text><text fill="#000000" font-family="sans-serif" font-size="11" lengthAdjust="spacing" textLength="117" x="13" y="378.8096">+void setWeight(uint8_t)</text><line style="stroke:#A80036;stroke-width:1.0;stroke-dasharray:1.0,2.0;" x1="8" x2="139" y1="291.293" y2="291.293"/><text fill="#000000" font-family="sans-serif" font-size="11" lengthAdjust="spacing" textLength="34" x="139" y="295.2939">setters</text><line style="stroke:#A80036;stroke-width:1.0;stroke-dasharray:1.0,2.0;" x1="173" x2="304" y1="291.293" y2="291.293"/><line style="stroke:#A80036;stroke-width:1.0;stroke-dasharray:1.0,2.0;" x1="8" x2="304" y1="385.2266" y2="385.2266"/><text fill="#000000" font-family="sans-serif" font-size="11" lengthAdjust="spacing" textLength="172" x="13" y="400.6455">+bool operator&lt;(const Task&amp; other)</text><text fill="#000000" font-family="sans-serif" font-size="11" lengthAdjust="spacing" textLength="184" x="13" y="432.3174">istream&amp; operator&gt;&gt;(istream&amp;, Task&amp;)</text><text fill="#000000" font-family="sans-serif" font-size="11" lengthAdjust="spacing" textLength="222" x="13" y="446.1533">ostream&amp; operator&lt;&lt;(ostream&amp;, const Task&amp;)</text><line style="stroke:#A80036;stroke-width:1.0;stroke-dasharray:1.0,2.0;" x1="8" x2="118" y1="413.9805" y2="413.9805"/><text fill="#000000" font-family="sans-serif" font-size="11" lengthAdjust="spacing" textLength="76" x="118" y="417.9814">friend functions</text><line style="stroke:#A80036;stroke-width:1.0;stroke-dasharray:1.0,2.0;" x1="194" x2="304" y1="413.9805" y2="413.9805"/><!--MD5=[20ddef7090025b04fb973268620c0974]
class DateTime--><rect codeLine="35" fill="#FEFECE" filter="url(#frasm0t95253s)" height="216.1953" id="DateTime" style="stroke:#A80036;stroke-width:1.5;" width="215" x="340.5" y="122"/><ellipse cx="416.75" cy="138" fill="#ADD1B2" rx="11" ry="11" style="stroke:#A80036;stroke-width:1.0;"/><path d="M419.5156,133.875 Q419.6719,133.6563 419.8594,133.5469 Q420.0469,133.4375 420.2656,133.4375 Q420.6406,133.4375 420.875,133.6953 Q421.1094,133.9531 421.1094,134.5625 L421.1094,136.0156 Q421.1094,136.625 420.875,136.8906 Q420.6406,137.1563 420.2656,137.1563 Q419.9219,137.1563 419.7188,136.9531 Q419.5156,136.7656 419.4063,136.25 Q419.3594,135.8906 419.1719,135.7031 Q418.8438,135.3281 418.2344,135.1094 Q417.625,134.8906 417,134.8906 Q416.2344,134.8906 415.6016,135.2188 Q414.9688,135.5469 414.4766,136.2969 Q413.9844,137.0469 413.9844,138.0781 L413.9844,139.1719 Q413.9844,140.4063 414.875,141.2266 Q415.7656,142.0469 417.3594,142.0469 Q418.2969,142.0469 418.9531,141.7969 Q419.3438,141.6406 419.7656,141.2031 Q420.0313,140.9375 420.1797,140.8594 Q420.3281,140.7813 420.5313,140.7813 Q420.8594,140.7813 421.1172,141.0391 Q421.375,141.2969 421.375,141.6406 Q421.375,141.9844 421.0313,142.3906 Q420.5313,142.9688 419.7344,143.2969 Q418.6563,143.75 417.3594,143.75 Q415.8438,143.75 414.6406,143.125 Q413.6563,142.625 412.9688,141.5547 Q412.2813,140.4844 412.2813,139.2031 L412.2813,138.0469 Q412.2813,136.7188 412.8984,135.5703 Q413.5156,134.4219 414.6094,133.8047 Q415.7031,133.1875 416.9375,133.1875 Q417.6719,133.1875 418.3203,133.3516 Q418.9688,133.5156 419.5156,133.875 Z " fill="#000000"/><text fill="#000000" font-family="sans-serif" font-size="12" lengthAdjust="spacing" textLength="54" x="437.25" y="142.9102">DateTime</text><line style="stroke:#A80036;stroke-width:1.5;" x1="341.5" x2="554.5" y1="154" y2="154"/><text fill="#000000" font-family="sans-serif" font-size="11" lengthAdjust="spacing" textLength="50" x="346.5" y="169.4189">-Date date</text><text fill="#000000" font-family="sans-serif" font-size="11" lengthAdjust="spacing" textLength="48" x="346.5" y="183.2549">-Time time</text><line style="stroke:#A80036;stroke-width:1.5;" x1="341.5" x2="554.5" y1="189.6719" y2="189.6719"/><text fill="#000000" font-family="sans-serif" font-size="11" lengthAdjust="spacing" textLength="108" x="346.5" y="205.0908">+DateTime(Date, Time)</text><text fill="#000000" font-family="sans-serif" font-size="11" lengthAdjust="spacing" textLength="106" x="346.5" y="236.7627">+Date getDate() const</text><text fill="#000000" font-family="sans-serif" font-size="11" lengthAdjust="spacing" textLength="106" x="346.5" y="250.5986">+Time getTime() const</text><line style="stroke:#A80036;stroke-width:1.0;stroke-dasharray:1.0,2.0;" x1="341.5" x2="431" y1="218.4258" y2="218.4258"/><text fill="#000000" font-family="sans-serif" font-size="11" lengthAdjust="spacing" textLength="34" x="431" y="222.4268">getters</text><line style="stroke:#A80036;stroke-width:1.0;stroke-dasharray:1.0,2.0;" x1="465" x2="554.5" y1="218.4258" y2="218.4258"/><text fill="#000000" font-family="sans-serif" font-size="11" lengthAdjust="spacing" textLength="96" x="346.5" y="282.2705">+void setDate(Date)</text><text fill="#000000" font-family="sans-serif" font-size="11" lengthAdjust="spacing" textLength="96" x="346.5" y="296.1064">+void setTime(Time)</text><line style="stroke:#A80036;stroke-width:1.0;stroke-dasharray:1.0,2.0;" x1="341.5" x2="431" y1="263.9336" y2="263.9336"/><text fill="#000000" font-family="sans-serif" font-size="11" lengthAdjust="spacing" textLength="34" x="431" y="267.9346">setters</text><line style="stroke:#A80036;stroke-width:1.0;stroke-dasharray:1.0,2.0;" x1="465" x2="554.5" y1="263.9336" y2="263.9336"/><line style="stroke:#A80036;stroke-width:1.0;stroke-dasharray:1.0,2.0;" x1="341.5" x2="554.5" y1="302.5234" y2="302.5234"/><text fill="#000000" font-family="sans-serif" font-size="11" lengthAdjust="spacing" textLength="203" x="346.5" y="317.9424">+DateTime timeTo(const DateTime&amp;) const</text><text fill="#000000" font-family="sans-serif" font-size="11" lengthAdjust="spacing" textLength="195" x="346.5" y="331.7783">+bool operator&lt;(const DateTime&amp;) const</text><!--MD5=[7829b64950ce38e0487c4015ea331f97]
class Date--><rect codeLine="51" fill="#FEFECE" filter="url(#frasm0t95253s)" height="89.5078" id="Date" style="stroke:#A80036;stroke-width:1.5;" width="82" x="591" y="185"/><ellipse cx="616.8" cy="201" fill="#ADD1B2" rx="11" ry="11" style="stroke:#A80036;stroke-width:1.0;"/><path d="M619.5656,196.875 Q619.7219,196.6563 619.9094,196.5469 Q620.0969,196.4375 620.3156,196.4375 Q620.6906,196.4375 620.925,196.6953 Q621.1594,196.9531 621.1594,197.5625 L621.1594,199.0156 Q621.1594,199.625 620.925,199.8906 Q620.6906,200.1563 620.3156,200.1563 Q619.9719,200.1563 619.7688,199.9531 Q619.5656,199.7656 619.4563,199.25 Q619.4094,198.8906 619.2219,198.7031 Q618.8938,198.3281 618.2844,198.1094 Q617.675,197.8906 617.05,197.8906 Q616.2844,197.8906 615.6516,198.2188 Q615.0188,198.5469 614.5266,199.2969 Q614.0344,200.0469 614.0344,201.0781 L614.0344,202.1719 Q614.0344,203.4063 614.925,204.2266 Q615.8156,205.0469 617.4094,205.0469 Q618.3469,205.0469 619.0031,204.7969 Q619.3938,204.6406 619.8156,204.2031 Q620.0813,203.9375 620.2297,203.8594 Q620.3781,203.7813 620.5813,203.7813 Q620.9094,203.7813 621.1672,204.0391 Q621.425,204.2969 621.425,204.6406 Q621.425,204.9844 621.0813,205.3906 Q620.5813,205.9688 619.7844,206.2969 Q618.7063,206.75 617.4094,206.75 Q615.8938,206.75 614.6906,206.125 Q613.7063,205.625 613.0188,204.5547 Q612.3313,203.4844 612.3313,202.2031 L612.3313,201.0469 Q612.3313,199.7188 612.9484,198.5703 Q613.5656,197.4219 614.6594,196.8047 Q615.7531,196.1875 616.9875,196.1875 Q617.7219,196.1875 618.3703,196.3516 Q619.0188,196.5156 619.5656,196.875 Z " fill="#000000"/><text fill="#000000" font-family="sans-serif" font-size="12" lengthAdjust="spacing" textLength="26" x="633.2" y="205.9102">Date</text><line style="stroke:#A80036;stroke-width:1.5;" x1="592" x2="672" y1="217" y2="217"/><text fill="#000000" font-family="sans-serif" font-size="11" lengthAdjust="spacing" textLength="42" x="597" y="232.4189">+int year</text><text fill="#000000" font-family="sans-serif" font-size="11" lengthAdjust="spacing" textLength="59" x="597" y="246.2549">+uint8_t day</text><text fill="#000000" font-family="sans-serif" font-size="11" lengthAdjust="spacing" textLength="70" x="597" y="260.0908">+uint8_t month</text><line style="stroke:#A80036;stroke-width:1.5;" x1="592" x2="672" y1="266.5078" y2="266.5078"/><!--MD5=[2e42295458bb0bec21c9622a623eb29e]
class Time--><rect codeLine="57" fill="#FEFECE" filter="url(#frasm0t95253s)" height="89.5078" id="Time" style="stroke:#A80036;stroke-width:1.5;" width="61" x="125.5" y="513"/><ellipse cx="140.95" cy="529" fill="#ADD1B2" rx="11" ry="11" style="stroke:#A80036;stroke-width:1.0;"/><path d="M143.7156,524.875 Q143.8719,524.6563 144.0594,524.5469 Q144.2469,524.4375 144.4656,524.4375 Q144.8406,524.4375 145.075,524.6953 Q145.3094,524.9531 145.3094,525.5625 L145.3094,527.0156 Q145.3094,527.625 145.075,527.8906 Q144.8406,528.1563 144.4656,528.1563 Q144.1219,528.1563 143.9188,527.9531 Q143.7156,527.7656 143.6063,527.25 Q143.5594,526.8906 143.3719,526.7031 Q143.0438,526.3281 142.4344,526.1094 Q141.825,525.8906 141.2,525.8906 Q140.4344,525.8906 139.8016,526.2188 Q139.1688,526.5469 138.6766,527.2969 Q138.1844,528.0469 138.1844,529.0781 L138.1844,530.1719 Q138.1844,531.4063 139.075,532.2266 Q139.9656,533.0469 141.5594,533.0469 Q142.4969,533.0469 143.1531,532.7969 Q143.5438,532.6406 143.9656,532.2031 Q144.2313,531.9375 144.3797,531.8594 Q144.5281,531.7813 144.7313,531.7813 Q145.0594,531.7813 145.3172,532.0391 Q145.575,532.2969 145.575,532.6406 Q145.575,532.9844 145.2313,533.3906 Q144.7313,533.9688 143.9344,534.2969 Q142.8563,534.75 141.5594,534.75 Q140.0438,534.75 138.8406,534.125 Q137.8563,533.625 137.1688,532.5547 Q136.4813,531.4844 136.4813,530.2031 L136.4813,529.0469 Q136.4813,527.7188 137.0984,526.5703 Q137.7156,525.4219 138.8094,524.8047 Q139.9031,524.1875 141.1375,524.1875 Q141.8719,524.1875 142.5203,524.3516 Q143.1688,524.5156 143.7156,524.875 Z " fill="#000000"/><text fill="#000000" font-family="sans-serif" font-size="12" lengthAdjust="spacing" textLength="28" x="155.05" y="533.9102">Time</text><line style="stroke:#A80036;stroke-width:1.5;" x1="126.5" x2="185.5" y1="545" y2="545"/><text fill="#000000" font-family="sans-serif" font-size="11" lengthAdjust="spacing" textLength="47" x="131.5" y="560.4189">+uint8_t h</text><text fill="#000000" font-family="sans-serif" font-size="11" lengthAdjust="spacing" textLength="49" x="131.5" y="574.2549">+uint8_t m</text><text fill="#000000" font-family="sans-serif" font-size="11" lengthAdjust="spacing" textLength="47" x="131.5" y="588.0908">+uint8_t s</text><line style="stroke:#A80036;stroke-width:1.5;" x1="126.5" x2="185.5" y1="594.5078" y2="594.5078"/><!--MD5=[e84c991d4d3bbf916ee1653c86a9249d]
class Label--><rect codeLine="63" fill="#FEFECE" filter="url(#frasm0t95253s)" height="61.8359" id="Label" style="stroke:#A80036;stroke-width:1.5;" width="74" x="222" y="527"/><ellipse cx="241.95" cy="543" fill="#ADD1B2" rx="11" ry="11" style="stroke:#A80036;stroke-width:1.0;"/><path d="M244.7156,538.875 Q244.8719,538.6563 245.0594,538.5469 Q245.2469,538.4375 245.4656,538.4375 Q245.8406,538.4375 246.075,538.6953 Q246.3094,538.9531 246.3094,539.5625 L246.3094,541.0156 Q246.3094,541.625 246.075,541.8906 Q245.8406,542.1563 245.4656,542.1563 Q245.1219,542.1563 244.9188,541.9531 Q244.7156,541.7656 244.6063,541.25 Q244.5594,540.8906 244.3719,540.7031 Q244.0438,540.3281 243.4344,540.1094 Q242.825,539.8906 242.2,539.8906 Q241.4344,539.8906 240.8016,540.2188 Q240.1688,540.5469 239.6766,541.2969 Q239.1844,542.0469 239.1844,543.0781 L239.1844,544.1719 Q239.1844,545.4063 240.075,546.2266 Q240.9656,547.0469 242.5594,547.0469 Q243.4969,547.0469 244.1531,546.7969 Q244.5438,546.6406 244.9656,546.2031 Q245.2313,545.9375 245.3797,545.8594 Q245.5281,545.7813 245.7313,545.7813 Q246.0594,545.7813 246.3172,546.0391 Q246.575,546.2969 246.575,546.6406 Q246.575,546.9844 246.2313,547.3906 Q245.7313,547.9688 244.9344,548.2969 Q243.8563,548.75 242.5594,548.75 Q241.0438,548.75 239.8406,548.125 Q238.8563,547.625 238.1688,546.5547 Q237.4813,545.4844 237.4813,544.2031 L237.4813,543.0469 Q237.4813,541.7188 238.0984,540.5703 Q238.7156,539.4219 239.8094,538.8047 Q240.9031,538.1875 242.1375,538.1875 Q242.8719,538.1875 243.5203,538.3516 Q244.1688,538.5156 244.7156,538.875 Z " fill="#000000"/><text fill="#000000" font-family="sans-serif" font-size="12" lengthAdjust="spacing" textLength="31" x="257.05" y="547.9102">Label</text><line style="stroke:#A80036;stroke-width:1.5;" x1="223" x2="295" y1="559" y2="559"/><text fill="#000000" font-family="sans-serif" font-size="11" lengthAdjust="spacing" textLength="62" x="228" y="574.4189">+string name</text><line style="stroke:#A80036;stroke-width:1.5;" x1="223" x2="295" y1="580.8359" y2="580.8359"/><!--MD5=[9f34dddf6215b227ec0f11fa1409e104]
class TaskApp--><rect codeLine="67" fill="#FEFECE" filter="url(#frasm0t95253s)" height="61.8359" id="TaskApp" style="stroke:#A80036;stroke-width:1.5;" width="80" x="331" y="527"/><ellipse cx="346" cy="543" fill="#ADD1B2" rx="11" ry="11" style="stroke:#A80036;stroke-width:1.0;"/><path d="M348.7656,538.875 Q348.9219,538.6563 349.1094,538.5469 Q349.2969,538.4375 349.5156,538.4375 Q349.8906,538.4375 350.125,538.6953 Q350.3594,538.9531 350.3594,539.5625 L350.3594,541.0156 Q350.3594,541.625 350.125,541.8906 Q349.8906,542.1563 349.5156,542.1563 Q349.1719,542.1563 348.9688,541.9531 Q348.7656,541.7656 348.6563,541.25 Q348.6094,540.8906 348.4219,540.7031 Q348.0938,540.3281 347.4844,540.1094 Q346.875,539.8906 346.25,539.8906 Q345.4844,539.8906 344.8516,540.2188 Q344.2188,540.5469 343.7266,541.2969 Q343.2344,542.0469 343.2344,543.0781 L343.2344,544.1719 Q343.2344,545.4063 344.125,546.2266 Q345.0156,547.0469 346.6094,547.0469 Q347.5469,547.0469 348.2031,546.7969 Q348.5938,546.6406 349.0156,546.2031 Q349.2813,545.9375 349.4297,545.8594 Q349.5781,545.7813 349.7813,545.7813 Q350.1094,545.7813 350.3672,546.0391 Q350.625,546.2969 350.625,546.6406 Q350.625,546.9844 350.2813,547.3906 Q349.7813,547.9688 348.9844,548.2969 Q347.9063,548.75 346.6094,548.75 Q345.0938,548.75 343.8906,548.125 Q342.9063,547.625 342.2188,546.5547 Q341.5313,545.4844 341.5313,544.2031 L341.5313,543.0469 Q341.5313,541.7188 342.1484,540.5703 Q342.7656,539.4219 343.8594,538.8047 Q344.9531,538.1875 346.1875,538.1875 Q346.9219,538.1875 347.5703,538.3516 Q348.2188,538.5156 348.7656,538.875 Z " fill="#000000"/><text fill="#000000" font-family="sans-serif" font-size="12" lengthAdjust="spacing" textLength="48" x="360" y="547.9102">TaskApp</text><line style="stroke:#A80036;stroke-width:1.5;" x1="332" x2="410" y1="559" y2="559"/><line style="stroke:#A80036;stroke-width:1.5;" x1="332" x2="410" y1="567" y2="567"/><text fill="#000000" font-family="sans-serif" font-size="11" lengthAdjust="spacing" textLength="53" x="337" y="582.4189">+void run()</text><!--MD5=[30c6b2ed4da85cef5b9d586bf674f588]
class TaskManager--><rect codeLine="71" fill="#FEFECE" filter="url(#frasm0t95253s)" height="277.375" id="TaskManager" style="stroke:#A80036;stroke-width:1.5;" width="270" x="21" y="663"/><ellipse cx="114.25" cy="679" fill="#ADD1B2" rx="11" ry="11" style="stroke:#A80036;stroke-width:1.0;"/><path d="M117.0156,674.875 Q117.1719,674.6563 117.3594,674.5469 Q117.5469,674.4375 117.7656,674.4375 Q118.1406,674.4375 118.375,674.6953 Q118.6094,674.9531 118.6094,675.5625 L118.6094,677.0156 Q118.6094,677.625 118.375,677.8906 Q118.1406,678.1563 117.7656,678.1563 Q117.4219,678.1563 117.2188,677.9531 Q117.0156,677.7656 116.9063,677.25 Q116.8594,676.8906 116.6719,676.7031 Q116.3438,676.3281 115.7344,676.1094 Q115.125,675.8906 114.5,675.8906 Q113.7344,675.8906 113.1016,676.2188 Q112.4688,676.5469 111.9766,677.2969 Q111.4844,678.0469 111.4844,679.0781 L111.4844,680.1719 Q111.4844,681.4063 112.375,682.2266 Q113.2656,683.0469 114.8594,683.0469 Q115.7969,683.0469 116.4531,682.7969 Q116.8438,682.6406 117.2656,682.2031 Q117.5313,681.9375 117.6797,681.8594 Q117.8281,681.7813 118.0313,681.7813 Q118.3594,681.7813 118.6172,682.0391 Q118.875,682.2969 118.875,682.6406 Q118.875,682.9844 118.5313,683.3906 Q118.0313,683.9688 117.2344,684.2969 Q116.1563,684.75 114.8594,684.75 Q113.3438,684.75 112.1406,684.125 Q111.1563,683.625 110.4688,682.5547 Q109.7813,681.4844 109.7813,680.2031 L109.7813,679.0469 Q109.7813,677.7188 110.3984,676.5703 Q111.0156,675.4219 112.1094,674.8047 Q113.2031,674.1875 114.4375,674.1875 Q115.1719,674.1875 115.8203,674.3516 Q116.4688,674.5156 117.0156,674.875 Z " fill="#000000"/><text fill="#000000" font-family="sans-serif" font-size="12" lengthAdjust="spacing" textLength="75" x="134.75" y="683.9102">TaskManager</text><line style="stroke:#A80036;stroke-width:1.5;" x1="22" x2="290" y1="695" y2="695"/><text fill="#000000" font-family="sans-serif" font-size="11" lengthAdjust="spacing" textLength="87" x="27" y="710.4189">-size_t id_counter</text><text fill="#000000" font-family="sans-serif" font-size="11" lengthAdjust="spacing" textLength="99" x="27" y="724.2549">-vector&lt;Task&gt; tasks</text><text fill="#000000" font-family="sans-serif" font-size="11" lengthAdjust="spacing" textLength="104" x="27" y="738.0908">-vector&lt;Label&gt; labels</text><text fill="#000000" font-family="sans-serif" font-size="11" lengthAdjust="spacing" textLength="152" x="27" y="751.9268">+loadDataFromFile(const char*)</text><text fill="#000000" font-family="sans-serif" font-size="11" lengthAdjust="spacing" textLength="174" x="27" y="765.7627">+saveDataToFile(const char*) const</text><text fill="#000000" font-family="sans-serif" font-size="11" lengthAdjust="spacing" textLength="79" x="27" y="797.4346">+TaskManager()</text><line style="stroke:#A80036;stroke-width:1.0;stroke-dasharray:1.0,2.0;" x1="22" x2="125" y1="779.0977" y2="779.0977"/><text fill="#000000" font-family="sans-serif" font-size="11" lengthAdjust="spacing" textLength="62" x="125" y="783.0986">constructors</text><line style="stroke:#A80036;stroke-width:1.0;stroke-dasharray:1.0,2.0;" x1="187" x2="290" y1="779.0977" y2="779.0977"/><line style="stroke:#A80036;stroke-width:1.0;stroke-dasharray:1.0,2.0;" x1="22" x2="290" y1="803.8516" y2="803.8516"/><text fill="#000000" font-family="sans-serif" font-size="11" lengthAdjust="spacing" textLength="169" x="27" y="819.2705">+Task getTaskById(size_t id) const</text><text fill="#000000" font-family="sans-serif" font-size="11" lengthAdjust="spacing" textLength="210" x="27" y="833.1064">+void changeName(size_t id, const string&amp;)</text><text fill="#000000" font-family="sans-serif" font-size="11" lengthAdjust="spacing" textLength="237" x="27" y="846.9424">+void changeDescription(size_t id, const string&amp;)</text><text fill="#000000" font-family="sans-serif" font-size="11" lengthAdjust="spacing" textLength="241" x="27" y="860.7783">+void changeDueDate(size_t id, const DateTime&amp;)</text><text fill="#000000" font-family="sans-serif" font-size="11" lengthAdjust="spacing" textLength="205" x="27" y="874.6143">+void changeLabel(size_t id, const Label*)</text><text fill="#000000" font-family="sans-serif" font-size="11" lengthAdjust="spacing" textLength="184" x="27" y="888.4502">+void changeWeight(size_t id, uint8_t)</text><text fill="#000000" font-family="sans-serif" font-size="11" lengthAdjust="spacing" textLength="226" x="27" y="920.1221">istream&amp; operator&gt;&gt;(istream&amp;, TaskManager&amp;)</text><text fill="#000000" font-family="sans-serif" font-size="11" lengthAdjust="spacing" textLength="258" x="27" y="933.958">ostram&amp; operator&lt;&lt;(ostream&amp;, const TaskManager&amp;)</text><line style="stroke:#A80036;stroke-width:1.0;stroke-dasharray:1.0,2.0;" x1="22" x2="118" y1="901.7852" y2="901.7852"/><text fill="#000000" font-family="sans-serif" font-size="11" lengthAdjust="spacing" textLength="76" x="118" y="905.7861">friend functions</text><line style="stroke:#A80036;stroke-width:1.0;stroke-dasharray:1.0,2.0;" x1="194" x2="290" y1="901.7852" y2="901.7852"/><!--MD5=[d4b4510ff3bb3451b58386f34d8ce842]
link Task to DateTime--><!--MD5=[dbdb3aad70f95e63910810ec67d0b4f5]
link DateTime to Date--><!--MD5=[f3c802e141aa63793134df0314ddf28b]
link Task to Time--><!--MD5=[5d75eb026d3d8b3d34373fc9a9be42b0]
link Time to Label--><!--MD5=[cd6ea97485955068a602dbbcc6f62870]
link Label to TaskApp--><!--MD5=[0b428e2862deffcfb04ee64bbc28bed5]
link Time to TaskManager--><!--MD5=[b767f93b4bfb0e61989f3db10442c2dd]
@startuml TM
skinparam classAttributeIconSize 0

class Task {
  -size_t id
  -string name
  -string description
  -DateTime due_date
  -const Label* label
  -uint8_t weight
  __
  .. constructors ..
  +Task()
  +Task(size_t, string, string, DateTime, const Label*, uint8_t)
  .. getters ..
  +size_t getId() const
  +string getName() const
  +string getDescription() const
  +DateTime getDueDate() const
  +Label getLabel() const
  +uint8_t getWeight() const
  .. setters ..
  +void setId(size_t)
  +void setName(const string&)
  +void setDescription(const string&)
  +void setDueDate(const DateTime&)
  +void setLabel(const Label*)
  +void setWeight(uint8_t)
  ..
  +bool operator<(const Task& other)
  .. friend functions ..
  istream& operator>>(istream&, Task&)
  ostream& operator<<(ostream&, const Task&)
}

class DateTime {
  -Date date
  -Time time
  __
  +DateTime(Date, Time)
  .. getters ..
  +Date getDate() const
  +Time getTime() const
  .. setters ..
  +void setDate(Date)
  +void setTime(Time)
  ..
  +DateTime timeTo(const DateTime&) const
  +bool operator<(const DateTime&) const
}

class Date {
  +int year
  +uint8_t day
  +uint8_t month
}

class Time {
  +uint8_t h 
  +uint8_t m
  +uint8_t s
}

class Label {
  +string name
}

class TaskApp {
  + void run()
}

class TaskManager {
  -size_t id_counter
  -vector<Task> tasks
  -vector<Label> labels
  +loadDataFromFile(const char*)
  +saveDataToFile(const char*) const
  .. constructors ..
  +TaskManager()
  ..
  +Task getTaskById(size_t id) const
  +void changeName(size_t id, const string&)
  +void changeDescription(size_t id, const string&)
  +void changeDueDate(size_t id, const DateTime&)
  +void changeLabel(size_t id, const Label*)
  +void changeWeight(size_t id, uint8_t)
  .. friend functions ..
  istream& operator>>(istream&, TaskManager&)
  ostram& operator<<(ostream&, const TaskManager&)
}

@enduml

PlantUML version 1.2022.0(Tue Jan 11 18:16:42 EET 2022)
(GPL source distribution)
Java Runtime: Java(TM) SE Runtime Environment
JVM: Java HotSpot(TM) 64-Bit Server VM
Default Encoding: Cp1252
Language: en
Country: US
--></g></svg>